<svg width="788" height="454" viewBox="0 0 788 454" fill="none" xmlns="http://www.w3.org/2000/svg">
<g clip-path="url(#clip0_5444_87323)">
<path d="M406.69 12.9338C410.261 12.9338 413.156 10.0385 413.156 6.46689C413.156 2.89533 410.261 0 406.69 0C403.118 0 400.223 2.89533 400.223 6.46689C400.223 10.0385 403.118 12.9338 406.69 12.9338Z" fill="#F2F2F2"/>
<path d="M406.69 38.7072C410.261 38.7072 413.156 35.8119 413.156 32.2403C413.156 28.6688 410.261 25.7734 406.69 25.7734C403.118 25.7734 400.223 28.6688 400.223 32.2403C400.223 35.8119 403.118 38.7072 406.69 38.7072Z" fill="#F2F2F2"/>
<path d="M433.69 12.9338C437.261 12.9338 440.156 10.0385 440.156 6.46689C440.156 2.89533 437.261 0 433.69 0C430.118 0 427.223 2.89533 427.223 6.46689C427.223 10.0385 430.118 12.9338 433.69 12.9338Z" fill="#F2F2F2"/>
<path d="M433.69 38.7072C437.261 38.7072 440.156 35.8119 440.156 32.2403C440.156 28.6688 437.261 25.7734 433.69 25.7734C430.118 25.7734 427.223 28.6688 427.223 32.2403C427.223 35.8119 430.118 38.7072 433.69 38.7072Z" fill="#F2F2F2"/>
<path d="M460.69 12.9338C464.261 12.9338 467.156 10.0385 467.156 6.46689C467.156 2.89533 464.261 0 460.69 0C457.118 0 454.223 2.89533 454.223 6.46689C454.223 10.0385 457.118 12.9338 460.69 12.9338Z" fill="#F2F2F2"/>
<path d="M460.69 38.7072C464.261 38.7072 467.156 35.8119 467.156 32.2403C467.156 28.6688 464.261 25.7734 460.69 25.7734C457.118 25.7734 454.223 28.6688 454.223 32.2403C454.223 35.8119 457.118 38.7072 460.69 38.7072Z" fill="#F2F2F2"/>
<path d="M460.69 64.4807C464.261 64.4807 467.156 61.5853 467.156 58.0138C467.156 54.4422 464.261 51.5469 460.69 51.5469C457.118 51.5469 454.223 54.4422 454.223 58.0138C454.223 61.5853 457.118 64.4807 460.69 64.4807Z" fill="#F2F2F2"/>
<path d="M460.69 90.2541C464.261 90.2541 467.156 87.3588 467.156 83.7872C467.156 80.2156 464.261 77.3203 460.69 77.3203C457.118 77.3203 454.223 80.2156 454.223 83.7872C454.223 87.3588 457.118 90.2541 460.69 90.2541Z" fill="#F2F2F2"/>
<path d="M487.69 12.9338C491.261 12.9338 494.156 10.0385 494.156 6.46689C494.156 2.89533 491.261 0 487.69 0C484.118 0 481.223 2.89533 481.223 6.46689C481.223 10.0385 484.118 12.9338 487.69 12.9338Z" fill="#F2F2F2"/>
<path d="M487.69 38.7072C491.261 38.7072 494.156 35.8119 494.156 32.2403C494.156 28.6688 491.261 25.7734 487.69 25.7734C484.118 25.7734 481.223 28.6688 481.223 32.2403C481.223 35.8119 484.118 38.7072 487.69 38.7072Z" fill="#F2F2F2"/>
<path d="M487.69 64.4807C491.261 64.4807 494.156 61.5853 494.156 58.0138C494.156 54.4422 491.261 51.5469 487.69 51.5469C484.118 51.5469 481.223 54.4422 481.223 58.0138C481.223 61.5853 484.118 64.4807 487.69 64.4807Z" fill="#F2F2F2"/>
<path d="M487.69 90.2541C491.261 90.2541 494.156 87.3588 494.156 83.7872C494.156 80.2156 491.261 77.3203 487.69 77.3203C484.118 77.3203 481.223 80.2156 481.223 83.7872C481.223 87.3588 484.118 90.2541 487.69 90.2541Z" fill="#F2F2F2"/>
<path d="M514.69 12.9338C518.261 12.9338 521.156 10.0385 521.156 6.46689C521.156 2.89533 518.261 0 514.69 0C511.118 0 508.223 2.89533 508.223 6.46689C508.223 10.0385 511.118 12.9338 514.69 12.9338Z" fill="#F2F2F2"/>
<path d="M514.69 38.7072C518.261 38.7072 521.156 35.8119 521.156 32.2403C521.156 28.6688 518.261 25.7734 514.69 25.7734C511.118 25.7734 508.223 28.6688 508.223 32.2403C508.223 35.8119 511.118 38.7072 514.69 38.7072Z" fill="#F2F2F2"/>
<path d="M541.69 12.9338C545.261 12.9338 548.156 10.0385 548.156 6.46689C548.156 2.89533 545.261 0 541.69 0C538.118 0 535.223 2.89533 535.223 6.46689C535.223 10.0385 538.118 12.9338 541.69 12.9338Z" fill="#F2F2F2"/>
<path d="M541.69 38.7072C545.261 38.7072 548.156 35.8119 548.156 32.2403C548.156 28.6688 545.261 25.7734 541.69 25.7734C538.118 25.7734 535.223 28.6688 535.223 32.2403C535.223 35.8119 538.118 38.7072 541.69 38.7072Z" fill="#F2F2F2"/>
<path d="M739.113 341.258H691.104C691.104 342.638 641.624 343.758 641.624 343.758C640.847 344.343 640.139 345.014 639.514 345.758C637.634 347.999 636.607 350.833 636.613 353.758V355.758C636.615 359.073 637.932 362.251 640.276 364.595C642.62 366.939 645.798 368.257 649.113 368.258H739.113C742.428 368.255 745.605 366.937 747.949 364.594C750.293 362.25 751.61 359.072 751.613 355.758V353.758C751.609 350.444 750.29 347.267 747.947 344.924C745.604 342.581 742.427 341.262 739.113 341.258V341.258Z" fill="#3F3D56"/>
<path d="M701.109 367.762H688.109V451.762H701.109V367.762Z" fill="#3F3D56"/>
<path d="M738.109 451.305C738.109 452.71 718.41 451.848 694.109 451.848C669.809 451.848 650.109 452.71 650.109 451.305C650.109 449.9 669.809 438.762 694.109 438.762C718.41 438.762 738.109 449.9 738.109 451.305Z" fill="#3F3D56"/>
<path d="M629.101 440.258L616.841 440.257L611.008 392.969L629.103 392.97L629.101 440.258Z" fill="#FFB8B8"/>
<path d="M608.082 436.754H631.726V451.641H593.195C593.195 447.693 594.764 443.906 597.556 441.114C600.347 438.322 604.134 436.754 608.082 436.754V436.754Z" fill="#2F2E41"/>
<path d="M609.963 433.415L598.266 429.744L606.858 382.879L624.122 388.297L609.963 433.415Z" fill="#FFB8B8"/>
<path d="M590.958 423.78L613.517 430.859L609.06 445.063L572.297 433.526C572.882 431.661 573.829 429.929 575.083 428.43C576.338 426.931 577.876 425.693 579.609 424.788C581.341 423.883 583.236 423.328 585.183 423.155C587.13 422.982 589.092 423.194 590.958 423.78V423.78Z" fill="#2F2E41"/>
<path d="M706.279 333.062C705.996 330.679 705.487 328.328 704.759 326.042L702.469 323.162L696.509 315.682L696.249 315.692C695.809 315.712 693.979 315.812 691.149 316.032H691.119C689.369 316.172 687.229 316.352 684.799 316.582C684.159 316.652 683.489 316.712 682.799 316.782V327.222H695.299C695.906 327.222 696.493 327.444 696.949 327.845C697.405 328.246 697.7 328.799 697.779 329.402C697.789 329.512 697.799 329.612 697.799 329.722C697.799 330.385 697.535 331.02 697.066 331.489C696.598 331.958 695.962 332.221 695.299 332.222H622.699C621.774 332.836 620.886 333.504 620.039 334.222C617.481 336.201 615.638 338.961 614.789 342.082C610.549 360.722 602.819 395.482 600.539 405.692C600.373 406.461 600.411 407.26 600.648 408.01C600.884 408.761 601.312 409.437 601.889 409.972C602.315 410.369 602.814 410.678 603.359 410.882L612.379 414.262C612.75 414.399 613.136 414.489 613.529 414.532C613.579 414.532 613.619 414.542 613.669 414.542C613.762 414.55 613.855 414.553 613.949 414.552C614.861 414.548 615.751 414.269 616.502 413.752C617.253 413.235 617.83 412.503 618.159 411.652L625.279 392.972L636.249 364.172L640.589 352.782C645.619 353.962 687.819 363.302 701.949 348.252C703.343 346.769 704.442 345.035 705.189 343.142C706.378 339.923 706.753 336.46 706.279 333.062Z" fill="#2F2E41"/>
<path d="M718.52 335.782C718.3 334.892 718.05 333.972 717.76 333.042L709.51 322.682L709.25 322.692C708.73 322.722 706.26 322.852 702.47 323.162C698.17 323.522 692.16 324.102 685.41 325.012C685.21 325.032 685 325.062 684.8 325.092C684.14 325.182 683.47 325.272 682.8 325.372V327.222H695.3C695.907 327.222 696.494 327.444 696.95 327.845C697.406 328.246 697.701 328.799 697.78 329.402C697.79 329.512 697.8 329.612 697.8 329.722C697.8 330.385 697.536 331.02 697.067 331.489C696.599 331.958 695.963 332.221 695.3 332.222H651.12C649.19 332.852 647.33 333.512 645.55 334.222C636.21 337.922 629.22 342.772 627.79 349.082C627.31 351.202 626.78 353.532 626.22 356.012C624.14 365.232 621.61 376.522 619.32 386.782V386.792C618.85 388.912 618.38 390.972 617.93 392.972C616.02 401.572 614.4 408.862 613.54 412.692C613.52 412.802 613.5 412.902 613.48 413.012V413.032C613.38 413.806 613.476 414.594 613.76 415.322L613.77 415.332V415.342C614.045 416.039 614.492 416.654 615.07 417.132C615.456 417.45 615.892 417.704 616.36 417.882L625.38 421.262C625.882 421.449 626.413 421.548 626.95 421.552C627.701 421.553 628.441 421.364 629.1 421.002C630.045 420.489 630.776 419.656 631.16 418.652L650.58 367.692L653.59 359.782C658.62 360.962 700.82 370.292 714.95 355.252C717.741 352.23 719.334 348.294 719.43 344.182C719.528 341.353 719.222 338.524 718.52 335.782V335.782Z" fill="#2F2E41"/>
<path d="M717.411 247.562C717.251 247.372 717.081 247.182 716.901 247.002C714.238 244.202 710.949 242.072 707.304 240.788C703.659 239.503 699.762 239.1 695.931 239.612C692.59 240.051 689.28 240.702 686.021 241.562C681.813 242.644 677.959 244.805 674.841 247.832C672.413 250.187 670.5 253.02 669.224 256.153C667.949 259.286 667.338 262.65 667.431 266.032C667.471 267.402 667.481 268.802 667.461 270.222C667.461 270.882 667.451 271.552 667.441 272.222H677.301C677.729 272.22 678.156 272.271 678.571 272.372C679.775 272.659 680.846 273.343 681.613 274.314C682.381 275.284 682.799 276.485 682.801 277.722V324.242C683.471 324.432 684.141 324.622 684.801 324.822C685.011 324.892 685.211 324.952 685.411 325.012C685.641 325.082 685.871 325.152 686.091 325.222C688.121 325.852 690.104 326.518 692.041 327.222H695.301C695.909 327.223 696.495 327.444 696.951 327.845C697.408 328.246 697.703 328.799 697.781 329.402C698.461 329.672 699.121 329.942 699.771 330.212C702.081 331.172 704.271 332.132 706.281 333.062C708.991 334.302 711.401 335.482 713.421 336.512C714.057 336.835 714.758 337.007 715.471 337.012C716.407 337.009 717.318 336.707 718.071 336.152C718.228 336.036 718.378 335.913 718.521 335.782C719.056 335.28 719.461 334.655 719.7 333.962C719.938 333.268 720.004 332.526 719.891 331.802C718.859 323.946 718.558 316.013 718.991 308.102C719.271 301.452 719.871 294.632 720.651 288.042C721.071 284.472 721.541 280.972 722.031 277.602C722.502 274.382 723.002 271.292 723.491 268.372C724.134 264.669 723.92 260.868 722.866 257.261C721.813 253.654 719.946 250.336 717.411 247.562Z" fill="#509594"/>
<path d="M676.42 248.381C675.907 248.161 675.379 247.977 674.84 247.831C672.175 247.113 669.341 247.378 666.855 248.577C664.37 249.776 662.398 251.829 661.3 254.361L654.43 270.221L653.57 272.221H677.3C677.728 272.22 678.155 272.27 678.57 272.371L679.37 270.521L682.41 263.501C683.618 260.701 683.665 257.537 682.542 254.702C681.419 251.868 679.218 249.594 676.42 248.381V248.381Z" fill="#509594"/>
<path d="M697.756 231.802C711.321 231.802 722.317 220.805 722.317 207.241C722.317 193.676 711.321 182.68 697.756 182.68C684.192 182.68 673.195 193.676 673.195 207.241C673.195 220.805 684.192 231.802 697.756 231.802Z" fill="#FFB8B8"/>
<path d="M722.031 277.601L708.011 277.981L706.991 287.831L706.761 290.111L684.801 299.971L682.801 300.871V318.401L684.801 317.831L691.121 316.031H691.151L718.991 308.101L719.311 308.011C721.56 307.361 723.54 306.003 724.956 304.139C726.372 302.274 727.149 300.002 727.171 297.661L727.241 286.031L727.301 277.461L722.031 277.601Z" fill="#FFB8B8"/>
<path d="M726.591 258.121C726.498 256.613 726.11 255.139 725.447 253.781C724.785 252.424 723.862 251.21 722.73 250.21C720.445 248.189 717.451 247.159 714.406 247.346C711.361 247.533 708.516 248.922 706.495 251.207C704.474 253.492 703.444 256.486 703.631 259.531L705.161 284.491C705.202 285.148 705.388 285.787 705.704 286.365C706.02 286.942 706.46 287.442 706.991 287.831C707.836 288.461 708.879 288.77 709.931 288.701L720.651 288.041L723.901 287.841C724.493 287.812 725.073 287.663 725.606 287.403C726.139 287.144 726.613 286.779 727.001 286.331C727.087 286.236 727.167 286.136 727.241 286.031C727.877 285.18 728.189 284.131 728.121 283.071L726.591 258.121Z" fill="#509594"/>
<path d="M686.091 325.221H684.801V325.091C684.141 325.181 683.471 325.271 682.801 325.371V327.221H692.041C690.101 326.521 688.117 325.854 686.091 325.221ZM686.091 325.221H684.801V325.091C684.141 325.181 683.471 325.271 682.801 325.371V327.221H692.041C690.101 326.521 688.117 325.854 686.091 325.221ZM695.301 325.221H684.801V277.721C684.797 276.095 684.266 274.513 683.287 273.215C682.307 271.917 680.933 270.971 679.371 270.521C678.699 270.318 678.002 270.217 677.301 270.221H588.301C586.312 270.223 584.406 271.014 583 272.42C581.594 273.826 580.803 275.732 580.801 277.721V326.721C580.801 328.71 581.592 330.617 582.998 332.023C584.405 333.43 586.312 334.22 588.301 334.221H695.301C696.409 334.219 697.477 333.809 698.301 333.069C699.126 332.329 699.649 331.312 699.771 330.211C699.791 330.048 699.801 329.885 699.801 329.721C699.799 328.528 699.324 327.384 698.481 326.541C697.637 325.697 696.494 325.223 695.301 325.221H695.301ZM697.801 329.721C697.801 330.384 697.537 331.019 697.068 331.488C696.599 331.957 695.964 332.221 695.301 332.221H588.301C586.842 332.22 585.444 331.64 584.413 330.609C583.381 329.578 582.802 328.179 582.801 326.721V277.721C582.802 276.262 583.381 274.864 584.413 273.833C585.444 272.801 586.842 272.222 588.301 272.221H677.301C677.729 272.22 678.155 272.27 678.571 272.371C679.774 272.658 680.846 273.342 681.613 274.313C682.38 275.283 682.799 276.484 682.801 277.721V327.221H695.301C695.908 327.222 696.495 327.443 696.951 327.844C697.407 328.245 697.702 328.798 697.781 329.401C697.79 329.511 697.801 329.611 697.801 329.721H697.801ZM686.091 325.221H684.801V325.091C684.141 325.181 683.471 325.271 682.801 325.371V327.221H692.041C690.101 326.521 688.117 325.854 686.091 325.221Z" fill="#3F3D56"/>
<path d="M632.797 308.223C636.111 308.223 638.797 305.536 638.797 302.223C638.797 298.909 636.111 296.223 632.797 296.223C629.483 296.223 626.797 298.909 626.797 302.223C626.797 305.536 629.483 308.223 632.797 308.223Z" fill="#509594"/>
<path d="M692.512 197.5C686.807 202.596 679.159 208.066 672.173 204.332C667.586 201.881 665.544 196.504 666.615 191.415C668.542 182.263 676.454 177.318 684.115 173.32C694.073 168.123 705.063 163.591 716.215 164.942C727.367 166.293 738.262 175.508 737.735 186.729C737.312 195.753 729.943 204.171 732.276 212.898C734.624 221.681 745.284 225.082 754.365 225.529C763.446 225.976 773.442 225.202 780.645 230.748C789.834 237.824 789.687 252.621 783.145 262.198C776.604 271.775 765.557 277.163 754.707 281.26C740.331 286.688 724.529 290.61 709.69 286.619C694.851 282.629 681.86 268.392 684.036 253.18C684.955 246.755 688.336 240.987 691.598 235.376C694.86 229.764 698.142 223.913 698.827 217.459C699.398 212.08 697.689 206.142 693.722 202.677C693.004 202.074 692.495 201.259 692.27 200.348C692.044 199.438 692.112 198.479 692.466 197.611L692.512 197.5Z" fill="#2F2E41"/>
<path d="M1.19023 453.112H774.484C774.8 453.112 775.103 452.986 775.326 452.763C775.549 452.54 775.675 452.237 775.675 451.921C775.675 451.605 775.549 451.303 775.326 451.079C775.103 450.856 774.8 450.73 774.484 450.73H1.19023C1.03358 450.73 0.87838 450.761 0.733521 450.82C0.588661 450.88 0.457001 450.967 0.346069 451.078C0.235138 451.189 0.14712 451.32 0.0870667 451.465C0.0270129 451.609 -0.00390625 451.764 -0.00390625 451.921C-0.00390625 452.078 0.0270129 452.233 0.0870667 452.378C0.14712 452.522 0.235138 452.654 0.346069 452.764C0.457001 452.875 0.588661 452.963 0.733521 453.022C0.87838 453.082 1.03358 453.112 1.19023 453.112V453.112Z" fill="#3F3D56"/>
<path d="M40.4297 353.758V355.758C40.4326 359.072 41.7504 362.25 44.094 364.594C46.4376 366.937 49.6154 368.255 52.9297 368.258H142.93C146.245 368.257 149.423 366.939 151.767 364.595C154.111 362.251 155.428 359.073 155.43 355.758V353.758C155.436 350.833 154.409 347.999 152.529 345.758C151.904 345.014 151.196 344.343 150.419 343.758C150.419 343.758 100.939 342.638 100.939 341.258H52.9297C49.6159 341.262 46.4391 342.581 44.0959 344.924C41.7527 347.267 40.4343 350.444 40.4297 353.758V353.758Z" fill="#3F3D56"/>
<path d="M90.9336 451.762H103.934L103.934 367.762H90.9336L90.9336 451.762Z" fill="#3F3D56"/>
<path d="M53.9336 451.305C53.9336 452.71 73.6331 451.848 97.9336 451.848C122.234 451.848 141.934 452.71 141.934 451.305C141.934 449.9 122.234 438.762 97.9336 438.762C73.6331 438.762 53.9336 449.9 53.9336 451.305Z" fill="#3F3D56"/>
<path d="M163.529 441.018H175.789L181.621 393.73L163.527 393.731L163.529 441.018Z" fill="#A0616A"/>
<path d="M199.434 452.4L160.903 452.402L160.902 437.515L184.546 437.514C188.494 437.514 192.281 439.082 195.073 441.874C197.865 444.666 199.433 448.452 199.434 452.4L199.434 452.4Z" fill="#2F2E41"/>
<path d="M182.667 434.177L194.364 430.506L185.772 383.641L168.508 389.059L182.667 434.177Z" fill="#A0616A"/>
<path d="M220.332 434.287L183.569 445.824L179.112 431.62L201.671 424.541C205.438 423.358 209.52 423.721 213.02 425.549C216.52 427.377 219.15 430.52 220.332 434.287L220.332 434.287Z" fill="#2F2E41"/>
<path d="M174.464 412.411L152.037 353.54C147.006 354.722 104.81 364.059 90.6782 349.012C85.8349 343.854 84.8903 336.383 87.8705 326.804L96.1181 316.439L96.3744 316.453C99.4929 316.617 172.81 320.727 177.836 342.842C182.073 361.486 189.812 396.247 192.083 406.457C192.313 407.515 192.156 408.62 191.639 409.572C191.123 410.523 190.281 411.257 189.269 411.641L180.25 415.022C179.747 415.212 179.215 415.309 178.678 415.309C177.765 415.308 176.873 415.031 176.121 414.514C175.369 413.997 174.791 413.264 174.464 412.411V412.411Z" fill="#2F2E41"/>
<path d="M161.464 419.411L139.037 360.54C134.005 361.722 91.8105 371.058 77.6782 356.012C72.8349 350.854 71.8903 343.383 74.8705 333.804L83.1181 323.439L83.3744 323.453C86.4929 323.617 159.81 327.727 164.836 349.842C169.073 368.486 176.812 403.247 179.083 413.457C179.313 414.515 179.156 415.62 178.639 416.572C178.123 417.523 177.281 418.257 176.269 418.641L167.25 422.022C166.747 422.212 166.215 422.309 165.678 422.309C164.765 422.308 163.873 422.031 163.121 421.514C162.369 420.997 161.791 420.264 161.464 419.411V419.411Z" fill="#2F2E41"/>
<path d="M141.291 305.194C137.967 305.192 134.7 304.328 131.81 302.685C128.921 301.043 126.507 298.678 124.806 295.822L117.684 283.756L134.613 274.503L141.801 284.359L190.575 279.221C190.812 278.791 191.079 278.379 191.374 277.987C192.31 276.755 193.495 275.734 194.851 274.991C196.208 274.248 197.706 273.799 199.247 273.673C200.796 273.54 202.355 273.74 203.82 274.259C205.285 274.779 206.621 275.606 207.74 276.685C209.534 278.405 210.693 280.681 211.031 283.143C211.369 285.605 210.864 288.109 209.6 290.248C208.809 291.581 207.745 292.732 206.478 293.626C205.211 294.519 203.77 295.134 202.249 295.432C200.727 295.729 199.16 295.702 197.65 295.352C196.14 295.002 194.721 294.336 193.486 293.399C193.2 293.18 192.926 292.947 192.664 292.699L145.949 304.61C144.427 304.998 142.862 305.194 141.291 305.194V305.194Z" fill="#A0616A"/>
<path d="M74.5543 336.911C73.8794 336.425 73.3522 335.761 73.0312 334.994C72.7102 334.226 72.608 333.385 72.7358 332.563C75.5182 314.22 72.3168 287.944 69.141 269.13C68.4909 265.313 68.7439 261.397 69.8796 257.695C71.0153 253.993 73.0023 250.608 75.6813 247.812C78.3602 245.017 81.6568 242.887 85.3068 241.594C88.9568 240.302 92.8589 239.882 96.7004 240.368C100.043 240.81 103.353 241.463 106.613 242.323V242.323C112.028 243.686 116.817 246.851 120.194 251.298C123.572 255.745 125.335 261.208 125.195 266.79C124.72 284.945 128.407 307.596 130.014 316.491C130.123 317.103 130.106 317.73 129.962 318.334C129.819 318.938 129.552 319.506 129.18 320.002C128.814 320.494 128.35 320.903 127.817 321.204C127.284 321.506 126.694 321.692 126.084 321.752C108.276 323.57 89.0721 332.254 79.2098 337.269C78.576 337.596 77.8735 337.768 77.1603 337.77C76.2227 337.767 75.3102 337.466 74.5543 336.911Z" fill="#CCCCCC"/>
<path d="M122.625 289.6C122.074 289.384 121.572 289.06 121.148 288.649C120.723 288.237 120.384 287.746 120.151 287.202L110.219 264.26C109.618 262.874 109.296 261.383 109.271 259.872C109.246 258.361 109.519 256.86 110.075 255.455C110.631 254.05 111.458 252.768 112.509 251.683C113.56 250.597 114.815 249.73 116.201 249.13C117.588 248.53 119.079 248.209 120.59 248.185C122.101 248.161 123.602 248.436 125.006 248.993C126.411 249.549 127.692 250.377 128.777 251.429C129.861 252.482 130.728 253.737 131.327 255.124L141.258 278.067C141.731 279.162 141.75 280.4 141.31 281.509C140.871 282.618 140.01 283.508 138.916 283.984L126.068 289.545C125.527 289.782 124.943 289.908 124.352 289.918C123.761 289.927 123.174 289.819 122.625 289.6H122.625Z" fill="#CCCCCC"/>
<path d="M94.8735 232.563C108.438 232.563 119.435 221.567 119.435 208.002C119.435 194.438 108.438 183.441 94.8735 183.441C81.3088 183.441 70.3125 194.438 70.3125 208.002C70.3125 221.567 81.3088 232.563 94.8735 232.563Z" fill="#A0616A"/>
<path d="M80.0293 229.825C79.6813 230.226 79.2564 230.554 78.7796 230.789C78.3028 231.023 77.7838 231.16 77.2533 231.19C76.7228 231.221 76.1915 231.145 75.691 230.966C75.1905 230.788 74.7308 230.511 74.3391 230.152C68.8624 225.718 64.5188 220.046 61.6669 213.603C58.4738 205.992 58.0058 196.704 61.6398 189.57C64.7118 183.539 70.2265 179.7 75.7318 176.563C77.8423 175.233 80.1551 174.255 82.5796 173.668C83.8042 173.39 85.0734 173.372 86.3056 173.614C87.5377 173.857 88.7054 174.354 89.7336 175.075C90.8245 175.905 91.6689 177.016 92.1759 178.289C92.683 179.563 92.8336 180.95 92.6116 182.302C95.1298 178.985 98.5248 176.437 102.414 174.946C104.8 173.919 107.466 173.74 109.967 174.44C113.503 175.62 116.12 179.19 117.576 183.026C118.754 185.963 119.185 189.145 118.832 192.29C118.678 193.791 118.22 195.245 117.486 196.564C116.752 197.883 115.757 199.039 114.563 199.961C111.679 201.951 107.963 201.749 104.609 200.868C101.256 199.988 98.0006 198.494 94.5882 198.078C91.1759 197.662 87.394 198.564 85.3609 201.608C83.9292 203.751 83.5916 206.575 83.2994 209.266L81.78 223.265C81.6726 225.268 81.2412 227.24 80.5024 229.104C80.3773 229.364 80.2183 229.607 80.0293 229.825V229.825Z" fill="#2F2E41"/>
<path d="M168.87 381.095H128.997C128.351 381.097 127.713 380.952 127.132 380.67C126.55 380.388 126.041 379.977 125.642 379.469C125.234 378.953 124.95 378.352 124.81 377.71C124.67 377.068 124.679 376.402 124.835 375.764C128.564 360.142 128.564 343.861 124.835 328.239C124.678 327.601 124.67 326.935 124.81 326.293C124.95 325.651 125.234 325.05 125.642 324.534C126.041 324.026 126.55 323.615 127.132 323.333C127.713 323.052 128.351 322.906 128.997 322.908H168.87C169.889 322.91 170.874 323.274 171.649 323.934C172.425 324.594 172.942 325.509 173.107 326.514C175.707 343.406 175.707 360.597 173.107 377.489C172.942 378.495 172.425 379.409 171.649 380.069C170.874 380.729 169.889 381.093 168.87 381.095V381.095Z" fill="#CCCCCC"/>
<path d="M138.266 344.584V343.412C138.266 342.617 138.583 341.854 139.145 341.292C139.708 340.729 140.47 340.413 141.266 340.412H162.189C162.985 340.413 163.747 340.729 164.31 341.292C164.872 341.854 165.188 342.617 165.189 343.412V344.584C165.188 345.379 164.872 346.142 164.31 346.704C163.747 347.267 162.985 347.583 162.189 347.584H141.266C140.47 347.583 139.708 347.267 139.145 346.704C138.583 346.142 138.266 345.379 138.266 344.584V344.584Z" fill="white"/>
<path d="M138.266 356.928V355.756C138.266 354.96 138.583 354.198 139.145 353.635C139.708 353.073 140.47 352.757 141.266 352.756H162.189C162.985 352.757 163.747 353.073 164.31 353.635C164.872 354.198 165.188 354.96 165.189 355.756V356.928C165.188 357.724 164.872 358.486 164.31 359.049C163.747 359.611 162.985 359.927 162.189 359.928H141.266C140.47 359.927 139.708 359.611 139.145 359.049C138.583 358.486 138.266 357.724 138.266 356.928Z" fill="white"/>
<path d="M151.126 308.842C150.712 308.318 150.423 307.706 150.28 307.054C150.138 306.401 150.147 305.725 150.305 305.076C154.097 289.197 154.097 272.649 150.305 256.77C150.147 256.121 150.138 255.445 150.28 254.792C150.423 254.139 150.712 253.528 151.126 253.004C151.532 252.487 152.049 252.07 152.64 251.784C153.231 251.497 153.88 251.35 154.537 251.352H195.064C196.099 251.354 197.101 251.723 197.889 252.394C198.678 253.065 199.203 253.995 199.371 255.017C202.014 272.186 202.014 289.66 199.371 306.829C199.203 307.851 198.678 308.781 197.889 309.452C197.101 310.123 196.099 310.492 195.064 310.494H154.537C153.88 310.496 153.231 310.349 152.64 310.062C152.049 309.776 151.532 309.359 151.126 308.842Z" fill="#509594"/>
<path d="M187.244 273.172H165.895C165.099 273.171 164.337 272.855 163.774 272.293C163.212 271.73 162.895 270.968 162.895 270.172V268.898C162.895 268.103 163.212 267.34 163.774 266.778C164.337 266.216 165.099 265.899 165.895 265.898H187.244C188.039 265.899 188.802 266.216 189.364 266.778C189.927 267.34 190.243 268.103 190.244 268.898V270.172C190.243 270.968 189.927 271.73 189.364 272.293C188.802 272.855 188.039 273.171 187.244 273.172V273.172Z" fill="white"/>
<path d="M187.244 285.719H165.895C165.099 285.718 164.337 285.402 163.774 284.84C163.212 284.277 162.895 283.515 162.895 282.719V281.445C162.895 280.65 163.212 279.887 163.774 279.325C164.337 278.763 165.099 278.446 165.895 278.445H187.244C188.039 278.446 188.802 278.763 189.364 279.325C189.927 279.887 190.243 280.65 190.244 281.445V282.719C190.243 283.515 189.927 284.277 189.364 284.84C188.802 285.402 188.039 285.718 187.244 285.719V285.719Z" fill="white"/>
<path d="M132.532 330.839C131.072 330.329 129.735 329.517 128.609 328.456C127.484 327.395 126.594 326.109 125.998 324.681C125.86 324.348 125.741 324.008 125.639 323.662L73.3169 308.769C71.0685 308.12 69.0894 306.763 67.6732 304.9C66.2571 303.037 65.4795 300.766 65.4558 298.426L65.3281 278.225L84.614 278.741L85.8708 290.875L130.612 310.962C131.033 310.71 131.471 310.488 131.923 310.297H131.923C133.571 309.606 135.363 309.327 137.143 309.483C138.923 309.639 140.639 310.227 142.141 311.194C143.644 312.161 144.888 313.48 145.767 315.036C146.646 316.592 147.133 318.339 147.186 320.125C147.239 321.911 146.856 323.683 146.071 325.289C145.286 326.894 144.121 328.284 142.679 329.339C141.236 330.394 139.559 331.081 137.791 331.343C136.023 331.604 134.218 331.431 132.532 330.839V330.839Z" fill="#A0616A"/>
<path d="M65.6291 287.094C65.2363 286.652 64.9351 286.136 64.7428 285.577C64.5506 285.018 64.4712 284.426 64.5093 283.836L66.0433 258.883C66.1335 257.374 66.5205 255.898 67.182 254.538C67.8435 253.179 68.7665 251.963 69.8983 250.961C71.0301 249.959 72.3484 249.189 73.7778 248.697C75.2073 248.205 76.7197 247.999 78.2287 248.092C79.7376 248.185 81.2134 248.574 82.5717 249.238C83.93 249.902 85.144 250.827 86.1444 251.961C87.1448 253.094 87.9119 254.414 88.4017 255.844C88.8916 257.274 89.0947 258.787 88.9993 260.296L87.4656 285.248C87.3908 286.439 86.8469 287.551 85.9531 288.341C85.0594 289.132 83.8888 289.535 82.698 289.463L68.7245 288.604C68.1342 288.57 67.5567 288.418 67.0254 288.159C66.4941 287.9 66.0195 287.538 65.6292 287.094H65.6291Z" fill="#CCCCCC"/>
<path d="M290.523 153.064H208.523C206.137 153.062 203.85 152.113 202.163 150.425C200.475 148.738 199.526 146.451 199.523 144.064V55.0645C199.526 52.6783 200.475 50.3908 202.163 48.7035C203.85 47.0163 206.137 46.0672 208.523 46.0645H290.523C292.91 46.0672 295.197 47.0163 296.884 48.7035C298.572 50.3908 299.521 52.6783 299.523 55.0645V144.064C299.521 146.451 298.572 148.738 296.884 150.425C295.197 152.113 292.91 153.062 290.523 153.064V153.064ZM208.523 48.0645C206.668 48.0665 204.888 48.8047 203.576 50.117C202.264 51.4293 201.526 53.2086 201.523 55.0645V144.064C201.526 145.92 202.264 147.7 203.576 149.012C204.888 150.324 206.668 151.062 208.523 151.064H290.523C292.379 151.062 294.159 150.324 295.471 149.012C296.783 147.7 297.521 145.92 297.523 144.064V55.0645C297.521 53.2086 296.783 51.4293 295.471 50.117C294.159 48.8047 292.379 48.0665 290.523 48.0645H208.523Z" fill="#3F3D56"/>
<path d="M440.523 153.064H358.523C356.137 153.062 353.85 152.113 352.162 150.425C350.475 148.738 349.526 146.451 349.523 144.064V55.0645C349.526 52.6783 350.475 50.3908 352.162 48.7035C353.85 47.0163 356.137 46.0672 358.523 46.0645H440.523C442.91 46.0672 445.197 47.0163 446.884 48.7035C448.572 50.3908 449.521 52.6783 449.523 55.0645V144.064C449.521 146.451 448.572 148.738 446.884 150.425C445.197 152.113 442.91 153.062 440.523 153.064V153.064ZM358.523 48.0645C356.668 48.0665 354.888 48.8047 353.576 50.117C352.264 51.4293 351.526 53.2086 351.523 55.0645V144.064C351.526 145.92 352.264 147.7 353.576 149.012C354.888 150.324 356.668 151.062 358.523 151.064H440.523C442.379 151.062 444.159 150.324 445.471 149.012C446.783 147.7 447.521 145.92 447.523 144.064V55.0645C447.521 53.2086 446.783 51.4293 445.471 50.117C444.159 48.8047 442.379 48.0665 440.523 48.0645H358.523Z" fill="#3F3D56"/>
<path d="M225.039 83.0645H217.039C215.846 83.0631 214.702 82.5886 213.859 81.745C213.015 80.9013 212.54 79.7575 212.539 78.5645V70.5645C212.54 69.3714 213.015 68.2276 213.859 67.3839C214.702 66.5403 215.846 66.0658 217.039 66.0645H225.039C226.232 66.0658 227.376 66.5403 228.22 67.3839C229.063 68.2276 229.538 69.3714 229.539 70.5645V78.5645C229.538 79.7575 229.063 80.9013 228.22 81.745C227.376 82.5886 226.232 83.0631 225.039 83.0645V83.0645Z" fill="#509594"/>
<path d="M225.039 108.064H217.039C215.846 108.063 214.702 107.589 213.859 106.745C213.015 105.901 212.54 104.758 212.539 103.564V95.5645C212.54 94.3714 213.015 93.2276 213.859 92.3839C214.702 91.5403 215.846 91.0658 217.039 91.0645H225.039C226.232 91.0658 227.376 91.5403 228.22 92.3839C229.063 93.2276 229.538 94.3714 229.539 95.5645V103.564C229.538 104.758 229.063 105.901 228.22 106.745C227.376 107.589 226.232 108.063 225.039 108.064V108.064Z" fill="#CCCCCC"/>
<path d="M283.506 78.2017H246.156C245.361 78.2008 244.598 77.8844 244.036 77.322C243.473 76.7596 243.157 75.997 243.156 75.2017V73.9277C243.157 73.1324 243.473 72.3698 244.036 71.8074C244.598 71.245 245.361 70.9286 246.156 70.9277H283.506C284.301 70.9286 285.064 71.245 285.626 71.8074C286.188 72.3698 286.505 73.1324 286.506 73.9277V75.2017C286.505 75.997 286.188 76.7596 285.626 77.322C285.064 77.8844 284.301 78.2008 283.506 78.2017V78.2017Z" fill="#509594"/>
<path d="M375.727 81.4961H367.727C366.533 81.4948 365.39 81.0202 364.546 80.1766C363.702 79.333 363.228 78.1892 363.227 76.9961V68.9961C363.228 67.803 363.702 66.6592 364.546 65.8156C365.39 64.972 366.533 64.4974 367.727 64.4961H375.727C376.92 64.4974 378.063 64.972 378.907 65.8156C379.751 66.6592 380.225 67.803 380.227 68.9961V76.9961C380.225 78.1892 379.751 79.333 378.907 80.1766C378.063 81.0202 376.92 81.4948 375.727 81.4961V81.4961Z" fill="#CCCCCC"/>
<path d="M434.197 76.6333H396.848C396.052 76.6324 395.29 76.3161 394.727 75.7537C394.165 75.1912 393.849 74.4287 393.848 73.6333V72.3594C393.849 71.564 394.165 70.8014 394.727 70.239C395.29 69.6766 396.052 69.3602 396.848 69.3594H434.197C434.992 69.3602 435.755 69.6766 436.317 70.239C436.88 70.8014 437.196 71.564 437.197 72.3594V73.6333C437.196 74.4287 436.88 75.1912 436.317 75.7537C435.755 76.3161 434.992 76.6324 434.197 76.6333Z" fill="#CCCCCC"/>
<path d="M434.197 100.633H364.848C364.052 100.632 363.29 100.316 362.727 99.7537C362.165 99.1912 361.849 98.4287 361.848 97.6333V96.3594C361.849 95.564 362.165 94.8014 362.727 94.239C363.29 93.6766 364.052 93.3602 364.848 93.3594H434.197C434.992 93.3602 435.755 93.6766 436.317 94.239C436.88 94.8014 437.196 95.564 437.197 96.3594V97.6333C437.196 98.4287 436.88 99.1912 436.317 99.7537C435.755 100.316 434.992 100.632 434.197 100.633V100.633Z" fill="#509594"/>
<path d="M434.197 117.633H364.848C364.052 117.632 363.29 117.316 362.727 116.754C362.165 116.191 361.849 115.429 361.848 114.633V113.359C361.849 112.564 362.165 111.801 362.727 111.239C363.29 110.677 364.052 110.36 364.848 110.359H434.197C434.992 110.36 435.755 110.677 436.317 111.239C436.88 111.801 437.196 112.564 437.197 113.359V114.633C437.196 115.429 436.88 116.191 436.317 116.754C435.755 117.316 434.992 117.632 434.197 117.633V117.633Z" fill="#CCCCCC"/>
<path d="M434.197 134.633H364.848C364.052 134.632 363.29 134.316 362.727 133.754C362.165 133.191 361.849 132.429 361.848 131.633V130.359C361.849 129.564 362.165 128.801 362.727 128.239C363.29 127.677 364.052 127.36 364.848 127.359H434.197C434.992 127.36 435.755 127.677 436.317 128.239C436.88 128.801 437.196 129.564 437.197 130.359V131.633C437.196 132.429 436.88 133.191 436.317 133.754C435.755 134.316 434.992 134.632 434.197 134.633V134.633Z" fill="#CCCCCC"/>
<path d="M590.523 153.064H508.523C506.137 153.062 503.85 152.113 502.162 150.425C500.475 148.738 499.526 146.451 499.523 144.064V55.0645C499.526 52.6783 500.475 50.3908 502.162 48.7035C503.85 47.0163 506.137 46.0672 508.523 46.0645H590.523C592.91 46.0672 595.197 47.0163 596.884 48.7035C598.572 50.3908 599.521 52.6783 599.523 55.0645V144.064C599.521 146.451 598.572 148.738 596.884 150.425C595.197 152.113 592.91 153.062 590.523 153.064V153.064ZM508.523 48.0645C506.668 48.0665 504.888 48.8047 503.576 50.117C502.264 51.4293 501.526 53.2086 501.523 55.0645V144.064C501.526 145.92 502.264 147.7 503.576 149.012C504.888 150.324 506.668 151.062 508.523 151.064H590.523C592.379 151.062 594.159 150.324 595.471 149.012C596.783 147.7 597.521 145.92 597.523 144.064V55.0645C597.521 53.2086 596.783 51.4293 595.471 50.117C594.159 48.8047 592.379 48.0665 590.523 48.0645H508.523Z" fill="#3F3D56"/>
<path d="M584.197 76.6333H546.848C546.052 76.6324 545.29 76.3161 544.727 75.7537C544.165 75.1912 543.849 74.4287 543.848 73.6333V72.3594C543.849 71.564 544.165 70.8014 544.727 70.239C545.29 69.6766 546.052 69.3602 546.848 69.3594H584.197C584.992 69.3602 585.755 69.6766 586.317 70.239C586.88 70.8014 587.196 71.564 587.197 72.3594V73.6333C587.196 74.4287 586.88 75.1912 586.317 75.7537C585.755 76.3161 584.992 76.6324 584.197 76.6333V76.6333Z" fill="#CCCCCC"/>
<path d="M584.197 100.633H514.848C514.052 100.632 513.29 100.316 512.727 99.7537C512.165 99.1912 511.849 98.4287 511.848 97.6333V96.3594C511.849 95.564 512.165 94.8014 512.727 94.239C513.29 93.6766 514.052 93.3602 514.848 93.3594H584.197C584.992 93.3602 585.755 93.6766 586.317 94.239C586.88 94.8014 587.196 95.564 587.197 96.3594V97.6333C587.196 98.4287 586.88 99.1912 586.317 99.7537C585.755 100.316 584.992 100.632 584.197 100.633Z" fill="#CCCCCC"/>
<path d="M584.197 117.633H514.848C514.052 117.632 513.29 117.316 512.727 116.754C512.165 116.191 511.849 115.429 511.848 114.633V113.359C511.849 112.564 512.165 111.801 512.727 111.239C513.29 110.677 514.052 110.36 514.848 110.359H584.197C584.992 110.36 585.755 110.677 586.317 111.239C586.88 111.801 587.196 112.564 587.197 113.359V114.633C587.196 115.429 586.88 116.191 586.317 116.754C585.755 117.316 584.992 117.632 584.197 117.633Z" fill="#CCCCCC"/>
<path d="M584.197 134.633H514.848C514.052 134.632 513.29 134.316 512.727 133.754C512.165 133.191 511.849 132.429 511.848 131.633V130.359C511.849 129.564 512.165 128.801 512.727 128.239C513.29 127.677 514.052 127.36 514.848 127.359H584.197C584.992 127.36 585.755 127.677 586.317 128.239C586.88 128.801 587.196 129.564 587.197 130.359V131.633C587.196 132.429 586.88 133.191 586.317 133.754C585.755 134.316 584.992 134.632 584.197 134.633Z" fill="#CCCCCC"/>
<path d="M283.506 103.202H246.156C245.361 103.201 244.598 102.884 244.036 102.322C243.473 101.76 243.157 100.997 243.156 100.202V98.9277C243.157 98.1324 243.473 97.3698 244.036 96.8074C244.598 96.245 245.361 95.9286 246.156 95.9277H283.506C284.301 95.9286 285.064 96.245 285.626 96.8074C286.188 97.3698 286.505 98.1324 286.506 98.9277V100.202C286.505 100.997 286.188 101.76 285.626 102.322C285.064 102.884 284.301 103.201 283.506 103.202Z" fill="#CCCCCC"/>
<path d="M225.039 133.064H217.039C215.846 133.063 214.702 132.589 213.859 131.745C213.015 130.901 212.54 129.758 212.539 128.564V120.564C212.54 119.371 213.015 118.228 213.859 117.384C214.702 116.54 215.846 116.066 217.039 116.064H225.039C226.232 116.066 227.376 116.54 228.22 117.384C229.063 118.228 229.538 119.371 229.539 120.564V128.564C229.538 129.758 229.063 130.901 228.22 131.745C227.376 132.589 226.232 133.063 225.039 133.064V133.064Z" fill="#CCCCCC"/>
<path d="M283.506 128.202H246.156C245.361 128.201 244.598 127.884 244.036 127.322C243.473 126.76 243.157 125.997 243.156 125.202V123.928C243.157 123.132 243.473 122.37 244.036 121.807C244.598 121.245 245.361 120.929 246.156 120.928H283.506C284.301 120.929 285.064 121.245 285.626 121.807C286.188 122.37 286.505 123.132 286.506 123.928V125.202C286.505 125.997 286.188 126.76 285.626 127.322C285.064 127.884 284.301 128.201 283.506 128.202Z" fill="#CCCCCC"/>
<path d="M530.52 72.0646C530.52 72.0415 530.523 72.0192 530.523 71.9961C530.523 70.8142 530.291 69.6439 529.838 68.5519C529.386 67.46 528.723 66.4678 527.887 65.6321C527.052 64.7964 526.06 64.1334 524.968 63.6812C523.876 63.2289 522.705 62.9961 521.523 62.9961V72.0646H530.52Z" fill="#509594"/>
<path d="M520.523 73.0646V63.9961C518.745 63.9955 517.008 64.5211 515.529 65.5066C514.05 66.4921 512.896 67.8935 512.212 69.534C511.528 71.1745 511.346 72.9806 511.687 74.7248C512.028 76.469 512.879 78.073 514.13 79.3347C515.382 80.5964 516.979 81.4592 518.721 81.8145C520.462 82.1697 522.27 82.0014 523.915 81.3308C525.561 80.6602 526.972 79.5173 527.969 78.0463C528.966 76.5752 529.506 74.8418 529.519 73.0646H520.523Z" fill="#CCCCCC"/>
</g>
<defs>
<clipPath id="clip0_5444_87323">
<rect width="787.827" height="453.112" fill="white"/>
</clipPath>
</defs>
</svg>
